#N canvas 313 250 718 332 10;
#X obj 478 246 s \$1-\$2;
#X msg 415 250 set \$1;
#X obj 415 270 s \$1-\$2-in;
#X obj 553 191 route \$2;
#X obj 415 229 t a a;
#N canvas 113 224 530 420 -get-default- 0;
#X obj 37 149 select 0;
#X obj 37 104 route bang;
#X obj 37 81 list;
#X obj 37 126 list append \$3;
#X obj 37 174 list append \$4;
#X obj 37 34 inlet;
#X obj 195 338 outlet;
#X obj 195 93 route bang;
#X obj 195 70 list;
#X obj 195 116 list append \$4;
#X obj 37 53 sel 0 1;
#X obj 289 171 symbol \$2;
#X obj 289 192 select file;
#X obj 225 297 makefilename data/%s;
#X obj 225 154 t a b;
#X obj 225 275 spigot;
#X msg 289 214 1;
#X msg 362 213 2;
#X obj 289 240 == 1;
#X obj 302 276 spigot;
#X obj 341 243 == 2;
#X text 293 149 if "file" add prefix ./data/;
#X connect 0 0 4 0;
#X connect 0 1 14 0;
#X connect 1 0 3 0;
#X connect 2 0 1 0;
#X connect 3 0 0 0;
#X connect 4 0 6 0;
#X connect 5 0 10 0;
#X connect 7 0 9 0;
#X connect 8 0 7 0;
#X connect 9 0 6 0;
#X connect 10 0 2 0;
#X connect 10 1 8 0;
#X connect 11 0 12 0;
#X connect 12 0 16 0;
#X connect 12 1 17 0;
#X connect 13 0 6 0;
#X connect 14 0 15 0;
#X connect 14 0 19 0;
#X connect 14 1 11 0;
#X connect 15 0 13 0;
#X connect 16 0 18 0;
#X connect 16 0 20 0;
#X connect 17 0 18 0;
#X connect 17 0 20 0;
#X connect 18 0 15 1;
#X connect 19 0 6 0;
#X connect 20 0 19 1;
#X restore 415 186 pd -get-default-;
#N canvas 1 53 471 428 -if-@- 0;
#X obj 82 102 route bang;
#X obj 82 81 list;
#X obj 82 122 list append \$3;
#X obj 82 212 splitfilename @;
#X obj 272 252 symbol;
#X obj 184 274 select symbol;
#X obj 184 254 symbol;
#X obj 184 235 t a b;
#X obj 82 144 route symbol;
#X obj 51 39 inlet;
#X text 116 16 @ argument means preset ID;
#X obj 51 360 outlet;
#X obj 304 352 outlet, f 7;
#X msg 272 315 1;
#X obj 51 332 f 0;
#X obj 51 61 t b b;
#X obj 82 166 t a a;
#X obj 304 327 symbol;
#X obj 272 294 t b b;
#X connect 0 0 2 0;
#X connect 1 0 0 0;
#X connect 2 0 8 0;
#X connect 3 1 7 0;
#X connect 4 0 5 1;
#X connect 5 1 18 0;
#X connect 6 0 5 0;
#X connect 7 0 6 0;
#X connect 7 1 4 0;
#X connect 8 0 16 0;
#X connect 9 0 15 0;
#X connect 13 0 14 1;
#X connect 14 0 11 0;
#X connect 15 0 14 0;
#X connect 15 1 1 0;
#X connect 16 0 3 0;
#X connect 16 1 17 1;
#X connect 17 0 12 0;
#X connect 18 0 13 0;
#X connect 18 1 17 0;
#X restore 415 108 pd -if-@-;
#N canvas 1 53 563 565 -get-type- 0;
#X obj 147 181 route float symbol;
#X obj 147 128 route bang;
#X obj 147 107 list;
#X msg 147 205 1;
#X msg 208 206 2;
#X obj 147 150 list append \$4;
#X obj 79 45 inlet;
#X obj 79 278 spigot;
#X obj 147 252 == 1;
#X obj 169 278 spigot;
#X obj 208 254 == 2;
#X obj 79 520 outlet;
#X obj 169 300 symbol;
#X obj 169 321 select void;
#X text 263 322 symbol except void;
#X text 83 14 route with type (float/symbol): \$4;
#X obj 336 237 inlet;
#X obj 336 261 t a a;
#X obj 215 394 r \$1-fade;
#X obj 79 426 spigot;
#X obj 134 426 spigot;
#X obj 134 447 pack f 0;
#X obj 134 470 line;
#X obj 125 368 f \$5;
#X obj 79 71 t a b b;
#X obj 118 394 == 0;
#X obj 173 395 == 1;
#X obj 215 416 route float;
#X connect 0 0 3 0;
#X connect 0 1 4 0;
#X connect 1 0 5 0;
#X connect 2 0 1 0;
#X connect 3 0 8 0;
#X connect 3 0 10 0;
#X connect 4 0 8 0;
#X connect 4 0 10 0;
#X connect 5 0 0 0;
#X connect 6 0 24 0;
#X connect 7 0 19 0;
#X connect 7 0 20 0;
#X connect 8 0 7 1;
#X connect 9 0 12 0;
#X connect 10 0 9 1;
#X connect 12 0 13 0;
#X connect 13 1 11 0;
#X connect 16 0 17 0;
#X connect 17 0 7 0;
#X connect 17 1 9 0;
#X connect 18 0 27 0;
#X connect 19 0 11 0;
#X connect 20 0 21 0;
#X connect 21 0 22 0;
#X connect 22 0 11 0;
#X connect 23 0 25 0;
#X connect 23 0 26 0;
#X connect 24 0 7 0;
#X connect 24 0 9 0;
#X connect 24 1 2 0;
#X connect 24 2 23 0;
#X connect 25 0 19 1;
#X connect 26 0 20 1;
#X connect 27 0 21 1;
#X restore 415 208 pd -get-type-;
#X obj 553 169 inlet;
#X obj 606 213 outlet;
#X text 552 148 route dispatch;
#X obj 415 84 r \$1-lb;
#X obj 131 124 r \$1-\$2;
#X obj 255 144 list split 1;
#X text 251 98 @list dispatch;
#X obj 255 118 inlet;
#X obj 295 211 outlet;
#X obj 57 125 inlet;
#X obj 57 182 outlet;
#X obj 57 150 list append;
#X obj 475 130 s \$1-@-id;
#X obj 438 155 s \$1-@-on;
#X text 54 14 \$0 \, name \, arg$ \, default(value/type) \, fade(0/1)
\; special symbol: void;
#X text 57 100 @preset list;
#X connect 1 0 2 0;
#X connect 3 0 7 1;
#X connect 3 1 9 0;
#X connect 4 0 1 0;
#X connect 4 1 0 0;
#X connect 5 0 7 0;
#X connect 6 0 5 0;
#X connect 6 0 21 0;
#X connect 6 1 20 0;
#X connect 7 0 4 0;
#X connect 8 0 3 0;
#X connect 11 0 6 0;
#X connect 12 0 19 1;
#X connect 13 0 7 1;
#X connect 13 1 16 0;
#X connect 15 0 13 0;
#X connect 17 0 19 0;
#X connect 19 0 18 0;
#X coords 0 -1 1 1 200 17 1 50 50;
