#N canvas 419 121 719 307 10;
#X obj 468 229 s \$1-\$2;
#X msg 436 251 set \$1;
#X obj 436 271 s \$1-\$2-in;
#X obj 565 150 route \$2;
#X obj 436 201 t a a;
#X obj 127 107 r \$1-\$2;
#X obj 565 126 inlet;
#X obj 618 176 outlet;
#X text 51 84 preset list;
#X text 562 103 route dispatch;
#X obj 252 125 list split 1;
#X text 251 80 @list dispatch;
#N canvas 1 53 563 565 -get-type- 0;
#X obj 147 181 route float symbol;
#X obj 147 130 route bang;
#X obj 147 109 list;
#X msg 147 205 1;
#X msg 208 206 2;
#X obj 79 45 inlet;
#X obj 79 278 spigot;
#X obj 147 252 == 1;
#X obj 169 278 spigot;
#X obj 208 254 == 2;
#X obj 79 520 outlet;
#X obj 169 300 symbol;
#X obj 169 321 select void;
#X text 263 322 symbol except void;
#X obj 336 237 inlet;
#X obj 336 261 t a a;
#X obj 303 395 r \$1-fade;
#X obj 79 426 spigot;
#X obj 214 391 spigot;
#X obj 214 443 line;
#X obj 79 71 t a b b;
#X obj 118 394 == 0;
#X obj 253 360 == 1;
#X obj 147 154 list append \$3;
#X obj 125 368 f \$4;
#X obj 303 421 route float;
#X obj 214 420 pack f 0;
#X connect 0 0 3 0;
#X connect 0 1 4 0;
#X connect 1 0 23 0;
#X connect 2 0 1 0;
#X connect 3 0 7 0;
#X connect 3 0 9 0;
#X connect 4 0 7 0;
#X connect 4 0 9 0;
#X connect 5 0 20 0;
#X connect 6 0 17 0;
#X connect 6 0 18 0;
#X connect 7 0 6 1;
#X connect 8 0 11 0;
#X connect 9 0 8 1;
#X connect 11 0 12 0;
#X connect 12 1 10 0;
#X connect 14 0 15 0;
#X connect 15 0 6 0;
#X connect 15 1 8 0;
#X connect 16 0 25 0;
#X connect 17 0 10 0;
#X connect 18 0 26 0;
#X connect 19 0 10 0;
#X connect 20 0 6 0;
#X connect 20 0 8 0;
#X connect 20 1 2 0;
#X connect 20 2 24 0;
#X connect 21 0 17 1;
#X connect 22 0 18 1;
#X connect 23 0 0 0;
#X connect 24 0 21 0;
#X connect 24 0 22 0;
#X connect 25 0 26 1;
#X connect 26 0 19 0;
#X restore 436 177 pd -get-type-;
#X obj 436 120 r \$1-lb;
#N canvas 1 404 393 251 -get-default- 0;
#X obj 37 179 select 0;
#X obj 37 104 route bang;
#X obj 37 81 list;
#X obj 37 126 list append \$3;
#X obj 37 204 list append \$4;
#X obj 37 34 inlet;
#X obj 195 218 outlet;
#X connect 0 0 4 0;
#X connect 0 1 6 0;
#X connect 1 0 3 0;
#X connect 2 0 1 0;
#X connect 3 0 6 0;
#X connect 4 0 6 0;
#X connect 5 0 2 0;
#X restore 436 143 pd -get-default-;
#X text 300 152 First;
#X obj 252 100 inlet;
#X obj 267 203 outlet;
#X obj 53 110 inlet;
#X obj 53 167 outlet;
#X obj 53 135 list append;
#X obj 267 178 list;
#X obj 253 148 t b a;
#X text 53 19 \$0 \, name \, default(value/type) \, fade(0/1);
#X connect 1 0 2 0;
#X connect 3 0 12 1;
#X connect 3 1 7 0;
#X connect 4 0 1 0;
#X connect 4 1 0 0;
#X connect 5 0 20 1;
#X connect 6 0 3 0;
#X connect 10 0 22 0;
#X connect 10 1 21 1;
#X connect 12 0 4 0;
#X connect 13 0 14 0;
#X connect 14 0 12 0;
#X connect 16 0 10 0;
#X connect 18 0 20 0;
#X connect 20 0 19 0;
#X connect 21 0 17 0;
#X connect 22 0 21 0;
#X connect 22 1 12 1;
#X coords 0 -1 1 1 200 17 1 50 50;
