#N canvas 1 79 523 325 10;
#X obj 307 217 list prepend;
#X obj 307 158 t a a;
#X obj 423 175 list length;
#X obj 423 200 + 1;
#X text 460 207 ID;
#X obj 307 109 inlet;
#X obj 307 183 list prepend;
#X obj 307 134 spigot;
#X obj 307 247 s @-OUT;
#X obj 356 109 t b a;
#X msg 356 133 1;
#X obj 356 85 r \$1-@-id;
#X obj 16 106 r @-IN;
#X obj 16 158 spigot;
#X obj 97 137 r @-ID;
#X obj 97 184 t a b;
#X msg 150 137 0;
#X obj 16 185 route list;
#X obj 97 160 spigot 1;
#X obj 16 236 route get fade;
#X msg 16 257 get;
#X msg 63 258 fade \$1;
#X obj 172 100 t b a;
#X msg 55 138 1;
#X obj 172 78 r \$1-@-id;
#X obj 63 286 s \$1-cmd;
#X text 17 39 Receive from [@-mem];
#X text 309 40 Send to [@-mem];
#X text 180 13 Argument \$1: \$0;
#X obj 113 213 route symbol;
#X obj 16 212 route;
#X obj 123 237 route symbol;
#X connect 0 0 8 0;
#X connect 1 0 6 0;
#X connect 1 1 2 0;
#X connect 2 0 3 0;
#X connect 3 0 0 1;
#X connect 5 0 7 0;
#X connect 6 0 0 0;
#X connect 7 0 1 0;
#X connect 9 0 10 0;
#X connect 9 1 6 1;
#X connect 10 0 7 1;
#X connect 11 0 9 0;
#X connect 12 0 13 0;
#X connect 13 0 17 0;
#X connect 14 0 18 0;
#X connect 15 0 30 1;
#X connect 15 1 16 0;
#X connect 16 0 18 1;
#X connect 17 0 30 0;
#X connect 18 0 15 0;
#X connect 19 0 20 0;
#X connect 19 1 21 0;
#X connect 19 2 31 0;
#X connect 20 0 25 0;
#X connect 21 0 25 0;
#X connect 22 0 23 0;
#X connect 22 1 31 1;
#X connect 23 0 13 1;
#X connect 24 0 22 0;
#X connect 30 0 19 0;
#X connect 31 0 25 0;
