#N canvas 813 359 885 499 10;
#X obj 100 100 tgl 10 0 \$0-tgl \$0-tgl-in empty 17 7 1 10 -104026
-104026 -104026 0 1;
#X text 104 46 gestions des etats couleurs;
#X obj 356 248 % 3;
#X obj 356 184 f;
#X obj 385 184 + 1;
#X obj 356 219 f;
#N canvas 578 355 457 384 color 0;
#X obj 93 -597 sel 0 1 2;
#X obj 200 -472 t b f;
#X obj 134 -455 +;
#X obj 134 -430 t b f;
#X obj 134 -399 +;
#X obj 57 -495 * -65536;
#X obj 134 -494 * -256;
#X obj 200 -494 * -1;
#X obj 134 -368 - 1;
#X obj 134 -529 nbx 5 14 -1e+37 1e+37 0 0 empty empty empty 0 -8 0
10 -262144 -1 -1 100 256;
#X msg 134 -288 color \$1 \$2 \$3;
#X obj 134 -311 pack 0 0 0;
#X obj 134 -339 t f f f;
#X msg 93 -556 255;
#X obj 134 -266 outlet colorstate;
#X obj 93 -622 inlet;
#X msg 174 -555 200;
#X msg 134 -555 100;
#X connect 0 0 13 0;
#X connect 0 1 17 0;
#X connect 0 2 16 0;
#X connect 1 0 2 0;
#X connect 1 1 2 1;
#X connect 2 0 3 0;
#X connect 3 0 4 0;
#X connect 3 1 4 1;
#X connect 4 0 8 0;
#X connect 5 0 4 0;
#X connect 6 0 2 0;
#X connect 7 0 1 0;
#X connect 8 0 12 0;
#X connect 9 0 6 0;
#X connect 9 0 5 0;
#X connect 9 0 7 0;
#X connect 10 0 14 0;
#X connect 11 0 10 0;
#X connect 12 0 11 0;
#X connect 12 1 11 1;
#X connect 12 2 11 2;
#X connect 13 0 9 0;
#X connect 15 0 0 0;
#X connect 16 0 9 0;
#X connect 17 0 9 0;
#X restore 100 67 pd color;
#X obj 356 134 r \$0-tgl;
#X obj 356 158 t b;
#X obj 242 87 loadbang;
#X msg 242 112 0;
#X text 487 340 f = etat (0/1/2) || \$2 = id;
#X text 462 109 \$1 = \$0 seq16-pulse parent || \$2 = id;
#X obj 407 338 unpack f \$2;
#X obj 767 89 bng 15 250 50 0 empty empty empty 17 7 0 10 -262144 -1
-1;
#X obj 765 129 print \$2;
#X obj 407 312 pack f \$2;
#X obj 284 110 r \$1-tgl-\$2-in;
#X obj 444 175 s \$1-tabdumping;
#X obj 408 365 tabwrite \$1-gui;
#X obj 338 337 spigot;
#X obj 356 284 t f f f f;
#X obj 338 398 unpack f \$2;
#X obj 338 372 pack f \$2;
#X obj 339 425 tabwrite \$1-sequence;
#X text 418 400 si pas mode 2 \, inscirtpiont direct ds sequence;
#X obj 371 312 != 2;
#X connect 2 0 21 0;
#X connect 3 0 4 0;
#X connect 3 0 5 0;
#X connect 4 0 3 1;
#X connect 5 0 2 0;
#X connect 6 0 0 0;
#X connect 7 0 8 0;
#X connect 8 0 3 0;
#X connect 8 0 18 0;
#X connect 9 0 10 0;
#X connect 10 0 3 0;
#X connect 13 0 19 0;
#X connect 13 1 19 1;
#X connect 14 0 15 0;
#X connect 16 0 13 0;
#X connect 17 0 3 0;
#X connect 20 0 23 0;
#X connect 21 0 20 0;
#X connect 21 1 26 0;
#X connect 21 2 6 0;
#X connect 21 3 16 0;
#X connect 22 0 24 0;
#X connect 22 1 24 1;
#X connect 23 0 22 0;
#X connect 26 0 20 1;
#X coords 0 -1 1 1 10 10 2 100 100;
