#N canvas 1 100 184 653 10;
#X declare -path abs/brutbox -path abs/malinette-abs;
#N canvas 211 415 418 275 MAIN 0;
#N canvas 649 140 424 363 CPU 0;
#X obj 41 146 cputime;
#X obj 41 65 loadbang;
#X obj 41 105 metro 1000;
#X msg 41 85 1;
#X obj 41 125 t b b;
#X obj 41 191 * 0.1;
#X obj 41 169 int;
#X text 36 38 CPU load in percent;
#X obj 41 297 s \$0-CNV-CPU;
#X obj 41 211 makefilename %d;
#X obj 180 231 sel 0 1;
#X obj 180 208 > 90;
#X msg 41 232 label CPU:\$1%;
#X msg 270 262 color 0 13 13;
#X msg 180 261 color 0 1 1;
#X text 180 185 Warning red color CPU level;
#X connect 0 0 6 0;
#X connect 1 0 3 0;
#X connect 2 0 4 0;
#X connect 3 0 2 0;
#X connect 4 0 0 0;
#X connect 4 1 0 1;
#X connect 5 0 9 0;
#X connect 5 0 11 0;
#X connect 6 0 5 0;
#X connect 9 0 12 0;
#X connect 10 0 14 0;
#X connect 10 1 13 0;
#X connect 11 0 10 0;
#X connect 12 0 8 0;
#X connect 13 0 8 0;
#X connect 14 0 8 0;
#X restore 48 98 pd CPU;
#N canvas 391 286 464 217 HELLO_MESSAGE 0;
#X obj 100 49 loadbang;
#X obj 100 146 print Malinette;
#X msg 123 104 Stay Free & Share ! - reso-nance.org;
#X msg 100 79 Welcome to the Malinette;
#X connect 0 0 2 0;
#X connect 0 0 3 0;
#X connect 2 0 1 0;
#X connect 3 0 1 0;
#X restore 48 118 pd HELLO_MESSAGE;
#N canvas 312 115 757 513 OPEN_PATCHS 0;
#X obj 300 316 loadbang;
#X obj 300 341 delay 100;
#X obj 475 270 s \$0-folder;
#X obj 543 134 s \$0-file;
#X obj 473 158 s \$0-folder;
#X obj 182 213 r CURRENT-FILE;
#X obj 475 193 r CURRENT-FOLDER;
#X obj 475 216 s \$0-folder;
#X text 180 193 Get filename of the saved patch;
#X obj 473 110 r M-PATCH;
#X text 469 87 Open a patch (example or project);
#X obj 473 134 unpack s s;
#X text 296 296 Open the first patch "new";
#X obj 475 245 r PROJECT-FOLDER;
#X obj 192 357 loadbang;
#X obj 164 335 symbol;
#X obj 56 47 r \$0-file;
#X obj 233 406 r \$0-folder;
#X obj 164 407 pack s s s;
#X msg 164 429 \; pd open \$1 \$2/\$3;
#X text 285 439 < open the new patch;
#X text 55 17 Open and close patches;
#X text 226 266 < close the last patch;
#X obj 192 380 getdir;
#X msg 56 396 \; AUDIO-MASTER on;
#X msg 103 93 \; AUDIO-MASTER off \; VIDEO-MASTER off, f 19;
#X obj 56 317 delay 250;
#X obj 56 371 delay 250;
#X msg 107 262 \; pd-\$1 menuclose;
#X obj 107 240 symbol new.pd;
#X obj 56 68 makefilename %s.pd;
#X obj 56 188 symbol;
#X obj 56 138 t b a;
#X obj 56 164 delay 250;
#X obj 56 94 t a b;
#X obj 56 211 t b a a b;
#X text 343 17 Add some delays and trigger on/off audio to avoid crashes
on Windows 10 and some "output snd_pcm_delay failed" errors on Linux
;
#X msg 300 365 symbol new.pd;
#X obj 321 397 s CURRENT-FILE;
#X connect 0 0 1 0;
#X connect 1 0 37 0;
#X connect 5 0 29 1;
#X connect 6 0 7 0;
#X connect 9 0 11 0;
#X connect 11 0 4 0;
#X connect 11 1 3 0;
#X connect 13 0 2 0;
#X connect 14 0 23 0;
#X connect 15 0 18 0;
#X connect 16 0 30 0;
#X connect 17 0 18 2;
#X connect 18 0 19 0;
#X connect 23 0 18 1;
#X connect 26 0 15 0;
#X connect 26 0 27 0;
#X connect 27 0 24 0;
#X connect 29 0 28 0;
#X connect 30 0 34 0;
#X connect 31 0 35 0;
#X connect 32 0 33 0;
#X connect 32 1 31 1;
#X connect 33 0 31 0;
#X connect 34 0 32 0;
#X connect 34 1 25 0;
#X connect 35 0 26 0;
#X connect 35 1 15 1;
#X connect 35 2 29 1;
#X connect 35 3 29 0;
#X connect 37 0 18 0;
#X connect 37 0 38 0;
#X restore 48 139 pd OPEN_PATCHS;
#X text 47 56 Main :;
#X obj 50 20 cnv 16 122 16 empty \$0-CNV-CPU CPU:5% 5 9 0 10 -262144
-166441 0;
#N canvas 338 98 836 424 PREFERENCES 0;
#X obj 52 52 bng 15 250 50 0 empty empty read 17 7 0 10 -262144 -1
-1;
#X obj 52 374 symbol;
#X obj 97 327 symbol;
#X obj 52 156 list trim;
#X obj 97 348 makefilename projects/%s;
#X obj 143 324 s VIDEO-MASTER;
#X msg 143 303 dimen \$1 \$2;
#X floatatom 189 264 5 0 0 0 - - -;
#X obj 52 133 textfile;
#X obj 52 99 until;
#X msg 103 98 read preferences/preferences.txt cr \, rewind;
#X obj 52 71 t b b;
#X obj 52 30 loadbang;
#X obj 52 397 s UI-LANGUAGE;
#X obj 501 185 textfile;
#X obj 501 155 until;
#X obj 501 127 t b s;
#X obj 501 106 symbol;
#X msg 610 88 en;
#X msg 641 88 fr;
#X text 500 59 READ TRANSLATION FILE;
#X obj 501 86 r UI-LANGUAGE;
#X obj 501 210 s UI-TRANSLATE;
#X msg 674 88 es;
#X obj 97 372 s PROJECT-FOLDER;
#X obj 189 281 s ARDUINO-PORT;
#X obj 235 260 s UI-EDITMODE;
#X obj 281 237 v 10BITS;
#X msg 544 156 read preferences/lang/\$1.txt cr \, rewind;
#X obj 340 264 s BB-OBJECTS-LIST;
#X obj 340 243 symbol;
#X obj 411 245 s UI-HARMONY;
#X obj 52 180 route language: brutbox-folder: screen: arduino: edit:
10bits: brutbox-objects: harmony: brutbox-rec-folder:;
#X obj 399 167 symbol;
#X obj 399 215 s AUDIO-MASTER;
#X msg 399 190 rec-folder \$1;
#X connect 0 0 11 0;
#X connect 1 0 13 0;
#X connect 2 0 4 0;
#X connect 3 0 32 0;
#X connect 4 0 24 0;
#X connect 6 0 5 0;
#X connect 7 0 25 0;
#X connect 8 0 3 0;
#X connect 8 1 9 1;
#X connect 9 0 8 0;
#X connect 10 0 8 0;
#X connect 11 0 9 0;
#X connect 11 1 10 0;
#X connect 12 0 0 0;
#X connect 14 0 22 0;
#X connect 14 1 15 1;
#X connect 15 0 14 0;
#X connect 16 0 15 0;
#X connect 16 1 28 0;
#X connect 17 0 16 0;
#X connect 18 0 17 0;
#X connect 19 0 17 0;
#X connect 21 0 17 0;
#X connect 23 0 17 0;
#X connect 28 0 14 0;
#X connect 30 0 29 0;
#X connect 32 0 1 0;
#X connect 32 1 2 0;
#X connect 32 2 6 0;
#X connect 32 3 7 0;
#X connect 32 4 26 0;
#X connect 32 5 27 0;
#X connect 32 6 30 0;
#X connect 32 7 31 0;
#X connect 32 8 33 0;
#X connect 33 0 35 0;
#X connect 35 0 34 0;
#X restore 48 181 pd PREFERENCES;
#N canvas 1 79 493 178 INCLUDE 0;
#X obj 29 82 declare -path abs/brutbox -path abs/malinette-abs;
#X restore 48 78 pd INCLUDE;
#N canvas 250 79 450 300 BLOCK_EDITMODE 0;
#X obj 81 139 route editmode;
#X obj 81 221 s pd-BRUTBOX.pd;
#X obj 134 95 r UI-EDITMODE;
#X obj 81 70 receivecanvas 2;
#X obj 81 161 tgl 15 0 empty empty empty 17 7 0 10 -262144 -1 -1 0
1;
#X obj 81 117 spigot;
#X msg 81 200 editmode 0;
#X obj 81 179 sel 1;
#X obj 134 116 == 0;
#X text 81 42 Block the editmode on main interface !;
#X connect 0 0 4 0;
#X connect 2 0 8 0;
#X connect 3 0 5 0;
#X connect 4 0 7 0;
#X connect 5 0 0 0;
#X connect 6 0 1 0;
#X connect 7 0 6 0;
#X connect 8 0 5 1;
#X restore 48 202 pd BLOCK_EDITMODE;
#N canvas 73 198 450 395 ADD_OBJECTS 0;
#X obj 220 192 symbol;
#X symbolatom 221 279 20 0 0 0 - - -;
#X obj 221 227 r \$0-file;
#X obj 57 301 pack f f s s;
#X obj 57 55 r M-OBJECT;
#X text 52 18 Add objects to the patch \; -------------------------
;
#X obj 57 82 route bb;
#X text 56 358 pd-filename.pd obj x y abstraction;
#X obj 57 106 t b b a;
#X obj 57 187 random 700;
#X obj 128 217 + 250;
#X obj 128 186 random 100;
#X msg 57 325 \; pd-\$4 obj \$1 \$2 \$3;
#X obj 222 256 makefilename %s.pd;
#X obj 299 221 r CURRENT-FILE;
#X connect 0 0 3 2;
#X connect 1 0 3 3;
#X connect 2 0 13 0;
#X connect 3 0 12 0;
#X connect 4 0 6 0;
#X connect 6 0 8 0;
#X connect 8 0 9 0;
#X connect 8 1 11 0;
#X connect 8 2 0 0;
#X connect 9 0 3 0;
#X connect 10 0 3 1;
#X connect 11 0 10 0;
#X connect 13 0 1 0;
#X connect 14 0 1 0;
#X restore 48 160 pd ADD_OBJECTS;
#X coords 0 -1 1 1 122 16 2 50 20;
#X restore 26 533 pd MAIN;
#X obj 27 388 ui-audio-rec;
#X obj 27 338 ui-audio-master;
#X obj 87 106 image preferences/brutbox-logo.gif;
#X obj 28 205 bb-ui-object bb;
#X obj 28 164 bb-ui-patch projects;
#X obj 119 205 bb-ui-help brutbox;
#X obj 27 438 ui-harmony;
