#N canvas 84 58 1728 992 10;
#X obj 1613 24 thispath;
#X obj 790 722 audio-out;
#X obj 793 223 seq16-count;
#X obj 1038 252 loadbang;
#X obj 820 641 audio-pitch -12;
#X obj 842 348 bng 15 250 50 0 empty empty empty 17 7 0 10 -262144
-1 -1;
#X obj 923 694 audio-reverb;
#X obj 922 774 audio-out;
#X obj 789 392 seq16-nb;
#X obj 1027 561 i;
#X obj 841 319 rand-sel 10 10;
#X msg 448 650 ry \$1;
#X obj 448 623 count 360;
#X obj 661 653 b;
#X obj 1028 497 random 3;
#X msg 1028 539 5;
#X obj 1028 473 rand-sel 5 10;
#X obj 355 628 gemhead;
#X obj 789 784 audio-nb;
#X obj 355 755 video-color;
#X obj 589 507 oscilloscope~;
#X obj 867 92 fftscope~;
#X obj 1028 518 sel 1;
#X obj 355 819 video-graph 4 4;
#X obj 550 673 * 360;
#X obj 789 552 synth-emu 2;
#X msg 507 735 r \$1;
#X obj 355 675 video-xyz;
#X obj 891 851 env~;
#X obj 891 876 fade 100;
#X obj 277 269 oscilloscope-big~;
#X obj 383 162 audio-out;
#X floatatom 382 22 5 0 0 0 - - -;
#X obj 383 52 synth~;
#X obj 633 305 mtof;
#X obj 598 200 map 0 1 40 120;
#X obj 1359 529 audio-out;
#X floatatom 1203 388 5 0 0 0 - - -;
#X obj 1164 405 synth~;
#X obj 1212 339 / 2;
#X obj 1359 414 synth-drums;
#X obj 1368 360 metro 500;
#X obj 1382 306 tgl 15 0 empty empty empty 17 7 0 10 -262144 -1 -1
0 1;
#X obj 1510 368 random 4;
#X obj 789 520 map 0 1 50 80;
#X floatatom 558 37 5 0 0 0 - - -;
#X connect 1 0 18 0;
#X connect 1 0 20 0;
#X connect 2 0 8 0;
#X connect 2 2 10 0;
#X connect 2 2 16 0;
#X connect 3 0 5 0;
#X connect 4 0 1 1;
#X connect 4 0 6 0;
#X connect 5 0 8 1;
#X connect 6 0 7 0;
#X connect 6 0 7 1;
#X connect 7 0 28 0;
#X connect 8 0 13 0;
#X connect 8 0 26 0;
#X connect 8 0 35 0;
#X connect 8 0 44 0;
#X connect 10 0 5 0;
#X connect 11 0 27 1;
#X connect 12 0 11 0;
#X connect 14 0 22 0;
#X connect 15 0 9 0;
#X connect 16 0 14 0;
#X connect 17 0 27 0;
#X connect 18 0 23 1;
#X connect 19 0 23 0;
#X connect 22 0 15 0;
#X connect 22 1 9 0;
#X connect 25 0 1 0;
#X connect 25 0 4 0;
#X connect 26 0 19 1;
#X connect 27 0 19 0;
#X connect 28 0 29 0;
#X connect 31 0 30 0;
#X connect 32 0 33 0;
#X connect 33 0 31 0;
#X connect 33 0 31 1;
#X connect 35 0 32 0;
#X connect 35 0 39 0;
#X connect 37 0 38 0;
#X connect 39 0 37 0;
#X connect 40 0 36 0;
#X connect 40 0 36 1;
#X connect 41 0 40 0;
#X connect 41 0 43 0;
#X connect 42 0 41 0;
#X connect 44 0 25 0;
#X connect 45 0 33 1;
